<svg viewBox="0 0 16 16" fill="none" xmlns="http://www.w3.org/2000/svg" id="Box--Streamline-Radix" height="16" width="16">
  <desc>
    Box Streamline Icon: https://streamlinehq.com
  </desc>
  <path fill-rule="evenodd" clip-rule="evenodd" d="M13.333333333333334 2.1333333333333333h-10.666666666666666c-0.29454933333333333 0 -0.5333333333333333 0.238784 -0.5333333333333333 0.5333333333333333v10.666666666666666c0 0.2945066666666667 0.238784 0.5333333333333333 0.5333333333333333 0.5333333333333333h10.666666666666666c0.2945066666666667 0 0.5333333333333333 -0.23882666666666666 0.5333333333333333 -0.5333333333333333v-10.666666666666666c0 -0.29454933333333333 -0.23882666666666666 -0.5333333333333333 -0.5333333333333333 -0.5333333333333333Zm-10.666666666666666 -1.0666666666666667C1.783008 1.0666666666666667 1.0666666666666667 1.783008 1.0666666666666667 2.6666666666666665v10.666666666666666c0 0.8836266666666667 0.7163413333333333 1.6 1.6 1.6h10.666666666666666c0.8836266666666667 0 1.6 -0.7163733333333333 1.6 -1.6v-10.666666666666666c0 -0.8836586666666667 -0.7163733333333333 -1.6 -1.6 -1.6h-10.666666666666666Z" fill="#000000" stroke-width="1.0667"></path>
</svg>