<svg viewBox="0 0 16 16" fill="none" xmlns="http://www.w3.org/2000/svg" id="Checkbox--Streamline-Radix" height="16" width="16">
  <desc>
    Checkbox Streamline Icon: https://streamlinehq.com
  </desc>
  <path fill-rule="evenodd" clip-rule="evenodd" d="M3.2 3.2h9.6v9.6H3.2l0 -9.6ZM2.1333333333333333 3.2c0 -0.5891093333333333 0.477568 -1.0666666666666667 1.0666666666666667 -1.0666666666666667h9.6c0.58912 0 1.0666666666666667 0.477568 1.0666666666666667 1.0666666666666667v9.6c0 0.58912 -0.4775466666666666 1.0666666666666667 -1.0666666666666667 1.0666666666666667H3.2c-0.5891093333333333 0 -1.0666666666666667 -0.4775466666666666 -1.0666666666666667 -1.0666666666666667V3.2Zm8.906453333333333 2.678453333333333c0.16661333333333334 -0.24285866666666667 0.10485333333333333 -0.5748586666666666 -0.13802666666666666 -0.7415253333333334 -0.24282666666666666 -0.16667733333333334 -0.5748266666666667 -0.10491733333333333 -0.7414933333333333 0.13794133333333333L7.083178666666667 9.758474666666666 5.543818666666667 7.9028160000000005c-0.18806399999999998 -0.22670933333333335 -0.5242986666666667 -0.2580266666666667 -0.7509973333333333 -0.06997333333333333 -0.22670933333333335 0.18806399999999998 -0.2580266666666667 0.5242986666666667 -0.06997333333333333 0.7509973333333333L6.71296 10.982826666666666c0.106752 0.12874666666666668 0.26770133333333335 0.19989333333333334 0.4347413333333333 0.19232 0.16704 -0.007679999999999999 0.3208533333333333 -0.09312000000000001 0.41546666666666665 -0.23104l3.4766186666666665 -5.065653333333334Z" fill="#000000" stroke-width="1.0667"></path>
</svg>